<?xml version="1.0" encoding="utf-8"?>
<!-- Generator: Adobe Illustrator 24.0.2, SVG Export Plug-In . SVG Version: 6.00 Build 0)  -->
<svg version="1.1" id="Layer_2" xmlns="http://www.w3.org/2000/svg" xmlns:xlink="http://www.w3.org/1999/xlink" x="0px" y="0px"
	 viewBox="0 0 48 48" style="enable-background:new 0 0 48 48;" xml:space="preserve">
<style type="text/css">
	.st0{fill:none;stroke:#9284BE;stroke-width:2;stroke-linecap:round;stroke-miterlimit:10;}
	.st1{fill:none;stroke:#9284BE;stroke-width:2;stroke-miterlimit:10;}
	.st2{fill:none;stroke:#0B0B0C;stroke-miterlimit:10;}
	.st3{fill:none;stroke:#9284BE;stroke-width:2;stroke-linecap:square;stroke-miterlimit:10;}
</style>
<path class="st0" d="M14.8,19.1c-0.4-0.5-0.8-1.1-1-1.7L14.8,19.1z"/>
<path class="st1" d="M34.6,17.3c-0.3,0.6-0.6,1.2-1,1.7L34.6,17.3z"/>
<path class="st0" d="M25.7,32.1l-0.9,1.6c-0.3,0.4-0.9,0.4-1.2,0l-8.7-14.6l0-0.1l-1-1.7v0c-0.5-1.1-0.8-2.3-0.8-3.6
	c-0.1-5.3,4.5-9.9,10.5-10.3c6.6-0.4,12.1,4.2,12.1,10c0,1.4-0.3,2.6-0.8,3.8l-1,1.7L29,26.7L27.6,29"/>
<path class="st2" d="M27.1,31.1"/>
<ellipse class="st3" cx="24" cy="13.5" rx="6.7" ry="5.9"/>
</svg>
