<?xml version="1.0" encoding="utf-8"?>
<!-- Generator: Adobe Illustrator 24.0.2, SVG Export Plug-In . SVG Version: 6.00 Build 0)  -->
<svg version="1.1" id="Layer_1" xmlns="http://www.w3.org/2000/svg" xmlns:xlink="http://www.w3.org/1999/xlink" x="0px" y="0px"
	 viewBox="0 0 48 48" style="enable-background:new 0 0 48 48;" xml:space="preserve">
<style type="text/css">
	.st0{fill:none;stroke:#9184BE;stroke-width:2;stroke-linecap:round;stroke-miterlimit:10;}
	.st1{fill:none;stroke:#9184BE;stroke-width:2;stroke-linecap:round;stroke-linejoin:bevel;stroke-miterlimit:10;}
	.st2{fill:none;stroke:#9184BE;stroke-width:2;stroke-miterlimit:10;}
	.st3{fill:none;stroke:#9184BE;stroke-miterlimit:10;}
</style>
<path class="st0" d="M31.8,29.9c-1.5,1.2-4,2.6-7.1,2.8c-7.1,0.3-15-6.4-15.2-15c-0.2-7.8,5.8-15.7,14.3-16c8.1-0.3,15,6.5,15.2,15
	c0.1,2.4-0.6,4.7-0.6,4.7c-0.9,2.9-2.4,4.8-3.3,5.8"/>
<path class="st0" d="M2,46.5C1.7,38.2,6.2,31,12.9,27"/>
<path class="st1" d="M35.6,26.5c6.6,3.7,10.6,10.8,10.8,18.9c0,0.3,0,0.6,0,0.9"/>
<path class="st2" d="M23.5,23.9"/>
<path class="st3" d="M4.5,46.8"/>
<path class="st0" d="M39.5,37.8"/>
<line class="st0" x1="7.4" y1="46.4" x2="45.7" y2="46.4"/>
</svg>
